<?xml version="1.0" standalone="no"?>
<!DOCTYPE svg PUBLIC "-//W3C//DTD SVG 1.1//EN" "http://www.w3.org/Graphics/SVG/1.1/DTD/svg11.dtd" >
<svg xmlns="http://www.w3.org/2000/svg">
  <metadata>Created by iconfont</metadata>
  <defs>
  <font id="layui-icon" horiz-adv-x="1024">
    <font-face
      font-family="layui-icon"
      font-weight="400"
      font-stretch="normal"
      units-per-em="1024"
      ascent="896"
      descent="-128"
    />
      <missing-glyph />
      
      <glyph glyph-name="order" unicode="&#59205;" d="M624.43931582 858.80464328L399.02550134 858.80464328c-27.65727553 0-49.75607169-24.06598946-49.75607169-53.80968139 0-29.80860266 22.1517842-53.94082717 49.75607169-53.94082717l226.80078538 0c26.25705762 0 48.39559481 24.13222451 48.39559482 53.94082717C674.23645285 834.7373295 652.10851404 858.80464328 624.43931582 858.80464328L624.43931582 858.80464328 624.43931582 858.80464328zM755.18544817 804.731346c0-70.08638099-12.87087297-108.14659585-81.10928504-108.14659585L349.6376986 696.58474886c-67.93505386 0-81.10928506 50.10049524-81.10928504 108.14659585l-108.14792145 0c-45.54482089 0-81.10928506-33.33365367-81.10928505-81.11060938l0-729.9875384c0-53.59772793 29.17539221-81.11060937 81.10928505-81.11060934l702.9515519 0c43.3272587 0 81.11060937 26.41602304 81.11060938 81.11060934L944.44265469 723.62073533c0 52.76713535-30.20601555 81.11060937-81.11060938 81.11060938L755.18544817 804.731346zM728.67802038 128.92308223999999L300.42343391 128.92308223999999c-15.77596055 0-31.52542579 16.19854186-31.52542579 29.41251538 0 13.17555551 13.33319661 24.46207675 29.12240288 24.46207675l427.01333527 0c15.77596055 0 29.11048147-10.25589791 30.31066732-24.46207675C755.34441359 145.10705149 744.45398092 128.92308223999999 728.67802038 128.92308223999999L728.67802038 128.92308223999999 728.67802038 128.92308223999999zM723.00164222 318.38959228l-428.96728027 0c-15.81570158 0-25.87554166 14.19293313-25.87554165 27.42015238 0 13.21397221 13.35969062 26.44251706 29.16214519 26.44251705l427.74060041 0c15.81437598 0 29.17406659-12.25090954 30.36365536-26.44251705C755.42522126 332.58252412 738.77627717 318.38959228 723.00164222 318.38959228L723.00164222 318.38959228 723.00164222 318.38959228zM723.00164222 507.57923814l-428.96728027 0c-15.81570158 0-25.87554166 14.19028322-25.87554165 27.40558104 0 13.22854484 13.35969062 26.45576407 29.16214519 26.45576407l427.74060041 0c15.81437598 0 29.17406659-12.25090954 30.36365536-26.45576407C755.42522126 521.7708456600001 738.77627717 507.57923814 723.00164222 507.57923814L723.00164222 507.57923814 723.00164222 507.57923814zM723.00164222 507.57923814"  horiz-adv-x="1024" />
      
      <glyph glyph-name="kefu" unicode="&#59204;" d="M889.1854491 559.97866759C847.77740769 733.16585986 696.28466938 866.55743654 511.85803841 866.55743654c-189.51481802 0-345.3601822-129.65962386-377.32609052-306.57744877-47.94886442-9.166131-70.74864174-33.99299673-70.74864174-70.7499632l0-165.08016535c0-41.22448179 30.72192447-70.74864174 70.74864174-70.74864172 22.56999713 0 57.4834374 6.88681414 70.74864174 23.58288059 32.05834949-86.40937515 142.14172623-192.66967934 166.5777004-195.64229994 12.18233184-1.47376534 19.32137572-2.14197785 11.14567733 7.92346734-12.09121211 14.85386042-88.13669172 89.03468444-103.06054246 193.06056956-6.58704231 45.78575717 27.08373302 90.73955146 66.23490711 98.15591635 62.91893575 11.93010078 125.46810935 25.54129751 188.38572364 37.26274746 39.98049666 7.41636617 67.29533134 29.77771116 84.01516754 67.0180091 3.91551374 8.70524914 8.61280924 26.25441045 11.1932181 51.63459666 2.30308791 12.62076286 14.32562987 4.07662378 14.83009066 3.40841124 0 0 89.7715671-30.63080477 103.08431351-192.07277733 8.10702826-97.92217427-80.3307555-228.78088286-90.27866957-244.05072475 0.6233134 0.94421331 0.11621092-13.21898503 8.47546893-8.56658864 74.36570511 41.75403253 131.41203036 111.51092146 157.78133028 195.41119826 10.66234591-16.16783589 27.38218338-27.8192942 46.77487088-31.87346843C839.32570979 114.32059119999997 713.05072745 23.99702252999998 556.58469156 10.27093633000004c-9.37346163 23.72154106-32.44924105 40.55626928-59.55674382 40.55626927-35.42054146 0-64.11537884-28.60371767-64.11537882-63.80504295 0-35.23698055 28.69483737-63.7944789 64.11537882-63.79447891 28.53372731 0 52.44014946 18.70070399 60.75450835 44.40311284 181.08556969 14.96875116 326.26858666 124.74179202 356.57584986 295.23500486 26.78396118 11.40054876 45.57842655 30.02994222 45.57842654 61.2827389L959.93673249 489.23002457C959.9354123 549.89209301 889.46144991 558.87334293 889.1854491 559.97866759zM794.85524698 512.81290642c-47.23575149 130.44272585-139.01195614 212.24592649-282.99720986 212.24592647-143.38571009 0-258.90458516-82.65497278-306.57744879-212.24592646-2.37175806 2.94752938-20.86513139 21.00379189-23.58288058 23.58288058 26.98997165 157.91867058 169.41034034 259.41168764 330.16032937 259.41168762 159.96952873 0 278.71193397-102.5996606 306.57876896-259.41168762C808.51266432 522.80835998 794.85524698 512.81290642 794.85524698 512.81290642z"  horiz-adv-x="1024" />
      
      <glyph glyph-name="user" unicode="&#59207;" d="M916.50275555 66.02903703000004c0-45.99656297-13.1072-85.31816297-39.44296296-118.20752592S818.92693333-101.45185185000003 781.91122963-101.45185185000003H242.08877037c-37.13706667 0-68.8128 16.50536297-95.14856296 49.27336296-26.33576297 32.88936297-39.44296297 72.33232592-39.44296296 118.20752592 0 35.80207408 1.69908148 69.66234075 5.33997037 101.45943705 3.64088889 31.7970963 10.19448889 63.83691852 19.90352593 96.11946667 9.70903703 32.16118518 22.08805925 59.83194075 37.0157037 82.76954073s34.83117037 41.74885925 59.46785185 56.19105185c24.63668148 14.44219259 53.03561482 21.84533333 85.07543703 21.84533334 55.22014815-54.00651852 121.12023703-80.9490963 197.82162964-80.9490963s142.60148148 26.94257778 197.82162962 80.9490963c32.03982222 0 60.31739259-7.28177778 85.07543704-21.84533334 24.63668148-14.44219259 44.41884445-33.25345185 59.46785185-56.19105185 14.92764445-23.05896297 27.30666667-50.48699259 37.0157037-82.76954073 9.70903703-32.16118518 16.384-64.20100741 19.90352593-96.11946667 3.39816297-31.7970963 5.09724445-65.65736297 5.09724444-101.45943705zM683.60722963 798.33315555C731.06014815 750.88023703 754.72592592 693.71828148 754.72592592 626.72592592s-23.66577778-124.15431111-71.11869629-171.60722962S578.99235555 384 512 384s-124.15431111 23.66577778-171.60722963 71.1186963S269.27407408 559.73357037 269.27407408 626.72592592s23.66577778 124.15431111 71.11869629 171.60722963S445.00764445 869.45185185 512 869.45185185s124.15431111-23.66577778 171.60722963-71.1186963z"  horiz-adv-x="1024" />
      
      <glyph glyph-name="cart" unicode="&#59206;" d="M772.559375 52.21500000000003c-29.323125 0-53.176875-23.80125-53.176875-53.165625s23.851875-53.1890625 53.1759375-53.1890625c29.3371875 0 53.1646875 23.825625 53.1646875 53.1890625s-23.8275 53.165625-53.1646875 53.165625m-340.25625 0c-29.2996875 0-53.191875-23.80125-53.191875-53.165625s23.893125-53.1890625 53.1909375-53.1890625c29.3240625 0 53.124375 23.825625 53.124375 53.1890625s-23.799375 53.165625-53.124375 53.165625M308.215625 228.52499999999998l-52.3940625 325.745625C222.3546875 746.04375 59.5146875 748.155 57.9115625 748.155l-0.155625-50.7028125c4.963125-0.0646875 122.090625-3.165 147.9375-151.5975l52.134375-322.8675c2.6709375-43.3275 32.56875-125.334375 126.82125-125.334375h498.1734375v50.805H384.648125c-68.6278125 0-75.5840625 69.826875-76.4325 80.068125m586.8646875 348.125625c-95.1646875 0-506.08125 50.701875-506.08125 50.701875s-101.559375 20.6615625-84.3525-88.8721875c17.0925-109.520625 42.9253125-264.361875 42.9253125-264.361875s20.765625-83.450625 108.046875-83.450625h355.370625c79.363125 0 107.030625 95.8003125 107.030625 95.8003125l44.435625 208.82625s27.82875 81.35625-67.3753125 81.35625"  horiz-adv-x="1024" />
      
      <glyph glyph-name="evaluate" unicode="&#59175;" d="M405.536-36.12800000000004c-8.8 0-17.568 3.584-23.904 10.688-83.232 93.216-217.856 94.112-220.64 94.112-0.096 0-0.096 0-0.192 0-17.568 0-31.904 14.176-32.032 31.744-0.128 17.664 14.016 32.064 31.648 32.256 6.656 0.352 165.664 0.192 268.96-115.488 11.776-13.184 10.624-33.408-2.56-45.184C420.736-33.440000000000055 413.12-36.12800000000004 405.536-36.12800000000004zM620.128-36.063999999999965c-7.776 0-15.584 2.816-21.76 8.544-12.96 12-13.76 32.256-1.728 45.216 106.976 115.52 262.752 115.392 268.896 115.136 17.696-0.192 31.872-14.656 31.68-32.32-0.192-17.568-14.464-31.68-32-31.68-0.096 0-0.16 0-0.256 0L864.96 68.832c-2.656 0-134.56-0.864-221.376-94.624C637.312-32.639999999999986 628.704-36.063999999999965 620.128-36.063999999999965zM563.712 126.68799999999999l-101.408 0c-3.232 0-6.368 0.48-9.344 1.408-108.256 13.888-200.256 76.704-259.552 177.44C124.576 422.528 108.8 574.1120000000001 154.208 682.752c4.896 11.68 16.224 19.392 28.896 19.648l9.632 0.096c60.96 0 117.888-11.52 169.696-34.304 37.44 68.448 80.192 120.384 127.328 154.688 2.496 2.176 5.344 4 8.512 5.344l0 0c9.888 4.288 21.376 3.36 30.432-2.528 1.568-1.024 3.04-2.176 4.384-3.456 47.264-34.688 88.832-85.856 126.464-155.744 52.832 23.872 111.072 35.968 173.632 35.968l9.792-0.096c12.672-0.256 24-7.968 28.896-19.648 45.408-108.672 29.664-260.256-39.232-377.248-59.296-100.672-151.264-163.52-259.488-177.44C570.112 127.20000000000005 566.976 126.68799999999999 563.712 126.68799999999999zM468 190.688l90.016 0c0.672 0.128 1.376 0.224 2.08 0.32 115.712 12.864 182.08 87.072 217.376 147.008 54.048 91.872 70.432 211.936 42.528 300.32-58.24-1.888-111.616-16.16-158.816-42.528-7.712-4.288-16.832-5.184-25.184-2.624-8.384 2.624-15.328 8.608-19.2 16.512-32.448 66.368-67.232 115.2-105.824 148.48-38.624-33.216-74.176-82.4-105.92-146.592-3.872-7.808-10.72-13.696-19.04-16.32-8.32-2.656-17.28-1.76-24.96 2.4C314.848 622.784 262.72 636.448 206.048 638.304c-27.904-88.384-11.52-208.448 42.528-300.288 35.296-59.936 101.632-134.112 217.312-147.008C466.592 190.91200000000003 467.296 190.81600000000003 468 190.688zM512.768-64c-17.664 0-32 14.304-32 32l0 190.688c0 17.696 14.336 32 32 32s32-14.304 32-32L544.768-32C544.736-49.696000000000026 530.432-64 512.768-64z"  horiz-adv-x="1024" />
      
      <glyph glyph-name="customer-service-fill" unicode="&#59161;" d="M587.59661767 245.61823132999996c-34.230808 0-60.892995 2.580212-68.461616 3.440282-17.545439 2.064169-30.274483 17.717453-28.210314 35.262893 1.892155 17.545439 17.545439 30.102469 35.262893 28.210314 79.642533-8.77272 201.772552-1.204099 223.102301 43.175542 7.568621 15.825298 26.662187 22.705863 42.659499 14.965228 15.997312-7.568621 22.705863-26.834201 14.965228-42.659499C773.02782867 258.00324733 662.07872767 245.61823132999996 587.59661767 245.61823132999996zM874.68816867 277.44084233c-17.717453 0-31.994625 14.277171-31.994625 31.994625l0 110.261045-42.831514 15.309256c-12.729044 4.472367-21.32975 16.685369-21.32975 30.102469 0 158.769024-129.182597 287.951621-287.951621 287.951621-158.769024 0-287.951621-129.182597-287.951621-287.951621 0-10.320847-4.988409-19.953637-13.417101-25.974131l-18.577524-13.245087 0-116.281539c0-17.717453-14.277171-31.994625-31.994625-31.994625s-31.994625 14.277171-31.994625 31.994625l0 132.794893c0 10.320847 4.988409 19.953637 13.417101 25.974131l18.921552 13.589115c8.77272 186.291282 163.069377 335.255501 351.596842 335.255501C677.04395567 817.04910733 830.13651367 671.3531553299999 842.00548767 487.81409933l43.51957-15.48127c12.729044-4.472367 21.32975-16.685369 21.32975-30.102469l0-132.794893C906.68279267 291.71801332999996 892.40562167 277.44084233 874.68816867 277.44084233zM618.55915767 133.63704532999998L618.55915767 143.26983632999998c28.0383 21.845792 50.400134 43.003528 63.645221 72.761969-29.070385-4.644381-61.581052-2.92424-87.727196-2.92424-31.994625 0-59.344868-0.860071-76.030237 1.032085-35.090879 3.956325-60.376953 38.703175-56.592642 73.794053 3.956325 35.090879 35.778935 60.720981 70.697799 56.592642 71.213842-7.568621 149.82429 0.688056 181.302873 13.933143 1.376113 29.242399 1.032085 60.032925 1.032085 83.426844 0 136.923232-83.254829 218.113892-216.737779 221.038132-0.688056 0-18.749538 0-19.437594 0-133.48295-2.752226-213.469511-84.974971-213.469511-222.070217 0-84.630942 1.376113-222.758273 97.359987-297.756425l0-9.63279c-127.978498-19.953637-226.026541-72.589955-226.026541-142.083655 0-17.717453 14.793214-34.230808 32.510667-34.230808l628.023518 0c17.717453 0 39.907274 16.513355 39.907274 34.230808C837.18909267 61.047091329999944 746.70967067 113.51139433000003 618.55915767 133.63704532999998z"  horiz-adv-x="1024" />
      
      <glyph glyph-name="customer-service" unicode="&#59160;" d="M169.25830067-43.19345967000004c-17.717453 0-31.994625 14.277171-31.994625 31.994625 0 69.493701 82.050731 119.721821 226.370569 139.847472l0 9.63279c-97.876029 74.998152-97.876029 213.985554-97.876029 298.616496 0 139.675458 82.222745 223.102301 219.834033 223.102301l7.396607 0c137.611288 0 219.834033-83.426844 219.834033-223.102301 0-10.320847-0.172014-20.641693-0.344028-31.306568-0.516042-17.717453-14.965228-31.650596-32.854695-31.134554-17.717453 0.516042-31.650596 15.137242-31.134554 32.854695 0.344028 9.976818 0.344028 19.781623 0.344028 29.586427 0 105.616664-52.464304 159.113052-155.844784 159.113052l-7.396607 0c-103.38048 0-155.844784-53.496388-155.844784-159.113052 0-102.176382 6.364522-206.244919 83.082815-255.096926 9.288762-5.84848 14.793214-15.997312 14.793214-27.006215L427.62349467 100.26630833000002c0-16.341341-12.385016-30.102469-28.554342-31.82261-128.494541-13.589115-197.816227-51.260205-197.816227-79.642533C201.25292567-28.74427466999998 186.80374067-43.19345967000004 169.25830067-43.19345967000004zM812.41906067-43.19345967000004c-17.717453 0-31.994625 14.277171-31.994625 31.994625 0 28.554342-69.321687 66.053418-197.816227 79.642533-16.341341 1.720141-28.726356 15.48127-28.726356 31.82261l0 54.700487c0 17.717453 14.277171 31.994625 31.994625 31.994625s31.994625-14.277171 31.994625-31.994625l0-26.318159c144.319839-19.953637 226.370569-70.353771 226.370569-139.847472C844.41368467-28.74427466999998 830.13651367-43.19345967000004 812.41906067-43.19345967000004zM590.86488567 243.89809032999995c-44.035612 0-76.890307 4.472367-77.750378 4.644381-15.825298 4.816395-25.286074 20.813707-21.845792 37.155048 3.268268 16.169326 18.40551 26.834201 34.918864 25.286074 79.814547-8.77272 201.600538-1.204099 222.930287 43.175542 7.568621 15.825298 26.662187 22.705863 42.659499 14.965228 15.997312-7.568621 22.705863-26.834201 14.965228-42.659499C773.37185767 256.97116332999997 666.03505267 243.89809032999995 590.86488567 243.89809032999995zM874.68816867 277.44084233c-17.717453 0-31.994625 14.277171-31.994625 31.994625l0 111.809172-42.831514 15.309256c-12.729044 4.472367-21.32975 16.685369-21.32975 30.102469 0 160.489165-129.182597 291.219889-287.951621 291.219889-158.769024 0-287.951621-130.730724-287.951621-291.219889 0-10.320847-4.988409-19.953637-13.417101-25.974131l-18.577524-13.245087 0-118.00168c0-17.717453-14.277171-31.994625-31.994625-31.994625s-31.994625 14.277171-31.994625 31.994625l0 134.34302c0 10.320847 4.988409 19.953637 13.417101 25.974131l18.921552 13.589115C147.75653767 671.3531553299999 302.05319467 821.69348833 490.58065967 821.69348833c186.463296 0 339.555854-147.072065 351.252814-332.331262l43.51957-15.48127c12.729044-4.472367 21.32975-16.685369 21.32975-30.102469l0-134.34302C906.68279267 291.71801332999996 892.40562167 277.44084233 874.68816867 277.44084233z"  horiz-adv-x="1024" />
      
      <glyph glyph-name="history" unicode="&#59193;" d="M532.960893 349.271034c7.798617 4.733814 12.96222 13.329587 12.96222 23.14821L545.923112 642.045077c0 15.138792-12.084223 27.047006-26.976398 27.047006-14.998599 0-26.976398-12.109806-26.976398-27.047006l0-251.711835L312.090483 390.333242c-14.787798 0-26.941606-12.07399-26.941606-26.976398 0-14.997576 12.065803-26.975375 26.941606-26.975375L509.988692 336.38146900000004C519.648702 336.38146900000004 528.184099 341.53586299999995 532.960893 349.271034zM509.953899 830.951495c-248.303202 0-449.610044-201.297632-449.610044-449.610044 0-248.314459 201.306842-449.610044 449.610044-449.610044 248.304226 0 449.610044 201.295586 449.610044 449.610044C959.563944 629.653863 758.258125 830.951495 509.953899 830.951495zM509.953899-14.314775000000054c-218.516806 0-395.657248 177.138396-395.657248 395.657248 0 218.517829 177.139419 395.657248 395.657248 395.657248 218.517829 0 395.657248-177.139419 395.657248-395.657248C905.611148 162.82259799999997 728.471728-14.314775000000054 509.953899-14.314775000000054z"  horiz-adv-x="1024" />
      
      <glyph glyph-name="history-fill" unicode="&#59200;" d="M532.960893 351.929584c-4.776793-7.736195-13.31219-12.890588-22.972201-12.890588L312.090483 339.038996c-14.875802 0-26.941606 11.977799-26.941606 26.975375 0 14.902408 12.153808 26.976398 26.941606 26.976398l179.87881 0L491.969293 644.703627c0 14.937201 11.977799 27.047006 26.976398 27.047006 14.893198 0 26.976398-11.908214 26.976398-27.047006l0-269.62481C545.923112 365.25917000000004 540.759509 356.66339800000003 532.960893 351.929584zM509.953899-65.61004400000002c248.304226 0 449.610044 201.295586 449.610044 449.610044 0 248.312412-201.305819 449.610044-449.610044 449.610044-248.303202 0-449.610044-201.297632-449.610044-449.610044C60.343855 135.68554099999994 261.649674-65.61004400000002 509.953899-65.61004400000002z"  horiz-adv-x="1024" />
      
      <glyph glyph-name="image" unicode="&#59201;" d="M334.870302 380.57908699999996l259.436774-259.420401c11.050684-11.048637 28.77844-10.994402 39.755446-0.01842 11.050684 11.050684 10.977006 28.77844-0.01842 39.755446l-72.080665 72.088852 96.211249 96.222505 145.149844-145.141658c10.979052-10.977006 28.686343-10.876722 39.663348 0.092098 11.050684 11.05887 11.014868 28.730345 0.073678 39.653115L683.931303 382.95725100000004c-7.024997 7.006578-16.756639 9.503445-25.740244 7.53665-9.017374 1.966795-18.786878-0.575098-25.77606-7.573489L522.206968 272.722614 355.908454 439.048757c-5.743818 5.735631-13.281491 8.469905-20.72809 8.250918-7.647167 0.403183-15.403828-2.342348-21.239743-8.17724l-119.335922-119.337969c-10.812253-10.810207-10.92277-28.702716 0.055259-39.680744 11.04966-11.048637 28.740578-11.002588 39.680744-0.063445L334.870302 380.57908699999996zM886.490671 833.610044L137.506259 833.610044c-41.510416 0-75.117838-33.634028-75.117838-75.117838L62.388421 9.50676999999996c0-41.509393 33.625842-75.116815 75.117838-75.116815l748.983389 0c41.511439 0 75.118861 33.624818 75.118861 75.116815L961.608509 758.492206C961.609533 800.002622 927.984714 833.610044 886.490671 833.610044zM905.40751 28.004053c0-20.656459-16.794501-37.413098-37.430494-37.413098L156.020938-9.409044999999992c-20.672832 0-37.430494 16.794501-37.430494 37.413098L118.590444 739.98776c0 20.663622 16.794501 37.421284 37.430494 37.421284l711.956078 0c20.673855 0 37.430494-16.794501 37.430494-37.421284L905.40751 28.004053zM774.272867 533.870356c41.381479 0 74.933643 33.552164 74.933643 74.93569 0 41.381479-33.55114 74.93569-74.933643 74.93569-41.383526 0-74.93569-33.553187-74.93569-74.93569C699.337177 567.4225200000001 732.888318 533.870356 774.272867 533.870356z"  horiz-adv-x="1024" />
      
      <glyph glyph-name="image-fill" unicode="&#59202;" d="M886.491695 833.610044L137.507282 833.610044c-41.510416 0-75.117838-33.634028-75.117838-75.117838L62.389444 9.50676999999996c0-41.509393 33.625842-75.116815 75.117838-75.116815l748.984413 0c41.510416 0 75.117838 33.635051 75.117838 75.116815L961.609533 758.492206C961.609533 800.002622 927.984714 833.610044 886.491695 833.610044zM774.272867 665.006022c41.381479 0 74.934666-33.552164 74.934666-74.93569 0-41.381479-33.552164-74.93569-74.934666-74.93569-41.382503 0-74.93569 33.553187-74.93569 74.93569C699.337177 631.4538580000001 732.889341 665.006022 774.272867 665.006022zM842.986855 165.422819c-10.977006-10.966773-28.685319-11.066033-39.663348-0.090051L658.174686 310.47238000000004l-96.212272-96.220459 72.080665-72.088852c10.994402-10.977006 11.06808-28.704762 0.01842-39.755446-10.977006-10.977006-28.704762-11.032264-39.754423 0.01842L334.870302 361.845421l-100.528578-100.538811c-10.940167-10.940167-28.631084-10.986215-39.680744 0.063445-10.978029 10.977006-10.867512 28.868491-0.055259 39.680744l119.335922 119.336946c5.835915 5.835915 13.592576 8.580422 21.239743 8.17724 7.445576 0.220011 14.984273-2.515287 20.72809-8.249895l166.299537-166.326143 110.205984 110.197798c6.989181 6.997368 16.758686 9.540284 25.777083 7.573489 8.982582 1.966795 18.715247-0.531096 25.740244-7.537673l159.127184-159.145603C854.0007 194.155211 854.037539 176.48373600000002 842.986855 165.422819z"  horiz-adv-x="1024" />
      
      <glyph glyph-name="fabulous" unicode="&#59185;" d="M202.892455 571.337689c-41.308825 0-74.934666-33.552164-74.934666-74.93569l0-487.077378c0-41.364083 33.552164-74.93569 74.934666-74.93569 41.309848 0 74.93569 33.55114 74.93569 74.93569L277.828145 496.403023C277.827121 537.767106 244.274958 571.337689 202.892455 571.337689zM221.627145 9.250944000000004c0-10.298554-8.324596-18.658965-18.73469-18.658965-10.353812 0-18.733667 8.232498-18.733667 18.658965L184.158788 496.466468c0 10.308787 8.324596 18.669198 18.733667 18.669198 10.354835 0 18.73469-8.241708 18.73469-18.669198L221.627145 9.250944000000004zM737.573013 571.337689L592.807932 571.337689c13.464663 10.236132 22.229281 26.41665 22.229281 44.620243L615.037213 721.098551c0 62.312184-50.293453 112.511493-112.329345 112.511493-61.910025 0-112.330368-50.374294-112.330368-112.511493l0-48.682769c0-2.487657 0.073678-4.957919 0.237407-7.408737l-0.659009 0c0.275269-3.083222 0.420579-6.210445 0.420579-9.366322 0-47.164183-31.740912-86.926792-75.080999-99.157347l0-41.345664c0-0.01842 0-0.026606 0-0.045025l0-505.766019c0-41.364083 33.534767-74.93569 74.897827-74.93569l275.590686 0c82.801844 0 161.122631 66.135256 175.153182 147.729599l52.396347 304.560484C910.897547 488.719017 841.138764 571.337689 737.573013 571.337689zM835.394946 367.096005l-47.657416-266.151709c-10.940167-61.031005-70.01461-110.500697-132.344191-110.500697L408.780639-9.55640100000005c-20.599154 0-37.284161 16.850783-37.284161 37.486776L371.496477 514.459261l1.737574 0c7.77508 4.52813 43.046399 26.856671 59.127655 67.251683 14.270005 35.830043 15.184841 64.497966 14.910595 75.090209-0.384763 2.662643-0.585331 5.379521-0.585331 8.150634l0 56.310493c0 31.010271 25.173332 56.146764 56.072063 56.146764 30.973432 0 56.07411-25.237801 56.07411-56.146764l0-56.310493c0-1.25355-0.035816-2.496867-0.127913-3.730974l0.511653 0c0 0 1.50119-47.749514 0-57.565067 0-10.849092-11.853979-32.875758-17.654079-42.379203-4.994758-8.17724-13.025665-15.660678-19.868513-22.209838-5.907547-1.125637-11.562337-5.891174-11.562337-11.753695 0-6.522554 5.122671-12.258185 11.562337-12.596899l0-0.255827 190.31858 0C794.745131 514.459261 849.957617 448.360843 835.394946 367.096005z"  horiz-adv-x="1024" />
      
      <glyph glyph-name="fabulous-fill" unicode="&#59186;" d="M128.53084 496.403023c0 41.382503 33.624818 74.93569 74.934666 74.93569 41.382503 0 74.93569-33.571606 74.93569-74.93569l0-487.077378c0-41.383526-33.624818-74.93569-74.93569-74.93569-41.381479 0-74.934666 33.571606-74.934666 74.93569L128.53084 496.403023zM390.802172 665.006022l-0.420579 0c0.275269-3.083222 0.420579-6.210445 0.420579-9.366322 0-47.164183-31.686676-86.926792-74.93569-99.157347l0-41.345664c0-0.01842 0-0.026606 0-0.045025l0-505.766019c0-41.364083 33.589003-74.93569 75.008344-74.93569l274.456862 0c82.71077 0 161.140027 66.145489 175.153182 147.729599l52.286854 304.560484c17.507746 102.038978-52.084239 184.65765-155.449421 184.65765L555.912627 571.337689c13.483082 10.236132 22.228257 26.41665 22.228257 44.620243L578.140884 739.794355c0 51.948139-41.932018 93.815689-93.669356 93.815689-51.626821 0-93.668333-42.004673-93.668333-93.815689L390.803195 665.006022z"  horiz-adv-x="1024" />
      
      <glyph glyph-name="help-sigh" unicode="&#59192;" d="M634.231879 93.28280199999995c-59.83476-88.961124-120.692826-157.574828-223.105311-157.574828-69.891813 11.273764-98.587366 60.905138-83.420945 111.446231l131.73737 432.239422c3.15997 10.592242-2.167363 21.907962-11.902074 25.291013-9.744945 3.394307-28.77844-9.116635-45.271066-26.995841l-79.590709-94.907557c-2.172479 15.893992-0.234337 42.276872-0.234337 52.895721 59.83476 88.972381 158.083411 159.195745 224.732367 159.195745 63.394842-6.444782 93.332688-56.595996 82.298378-111.753223L496.849952 48.791495000000054c-1.777483-9.854439 3.451612-19.766183 12.463869-22.895453 9.739828-3.394307 30.234605 9.121751 46.721091 26.990724l79.585593 94.907557C637.802194 131.90544799999998 634.231879 103.91085999999996 634.231879 93.28280199999995zM611.149161 652.529873c-50.374294 0-91.212398 36.31509-91.212398 89.886193 0 53.56087 40.83708 89.87596 91.212398 89.87596 50.364061 0 91.201142-36.31509 91.201142-89.87596C702.350302 688.844963 661.513222 652.529873 611.149161 652.529873z"  horiz-adv-x="1024" />
      
      <glyph glyph-name="download-arrow" unicode="&#59176;" d="M102.4 69.97333332999995l819.2 0 0-95.57333333-819.2 0 0 95.57333333ZM746.97386667 366.93333333l-188.26581334-198.54677333c-11.68042667-11.95349333-28.17365333-19.72224-46.70805333-19.72224s-35.0208 7.76874667-46.51008 19.84512L276.82816 366.78997332999995c-9.84405333 10.69056-16.11776 24.50090667-16.11776 39.81312 0 32.8704 28.13952 59.52170667 62.82581333 59.52170667 0.48469333 0 0.95573333-0.06144 1.4336-0.07509333l0 0.37546666 124.19754667 0L449.16736 612.33152c0 32.89088 28.14634667 59.54218667 62.82581333 59.54218667 34.69994667 0 62.83264-26.64448 62.83264-59.54218667l0-145.90634667 121.90378667 0 0-0.47786666c1.24245333 0.06826667 2.46442667 0.19114667 3.73418667 0.19114666 34.69312 0 62.82581333-26.65813333 62.82581333-59.53536C763.29642667 391.29088 757.01589333 377.48735999999997 746.97386667 366.93333333zM409.6 793.6l204.8 0 0-346.45333333-204.8 0 0 346.45333333Z"  horiz-adv-x="1024" />
      
      <glyph glyph-name="function-case" unicode="&#59188;" d="M424.34 258.99l-149.49 85.08a30 30 0 0 1-29.7-52.14l149.49-85.08a30 30 0 0 1 29.7 52.14zM772.82 507.93a30 30 0 0 1-29.64 52.17L509 426.81l-234.15 133.26a30 30 0 0 1-29.7-52.14l237.51-135.15V84a30 30 0 1 1 60 0v289.98c0 0.93-0.45 1.74-0.54 2.67l230.7 131.28zM857.27 646.05L557.18 821.7a89.67 89.67 0 0 1-90.6 0L166.7 646.05A90.6 90.6 0 0 1 122 567.8399999999999v-372.81c0-32.61 17.46-62.7 45.69-78.75l300-170.55a89.55 89.55 0 0 1 88.59 0l300 170.55A90.54 90.54 0 0 1 902 195.02999999999997V567.8399999999999a90.6 90.6 0 0 1-44.73 78.21zM842 195.02999999999997c0-10.86-5.82-20.91-15.24-26.25l-300-170.55a29.79 29.79 0 0 0-29.52 0l-300 170.55A30.18 30.18 0 0 0 182 195.02999999999997V567.8399999999999c0 10.74 5.67 20.67 14.91 26.07l299.88 175.65a29.85 29.85 0 0 0 30.18 0l300.12-175.68c9.24-5.37 14.91-15.3 14.91-26.04v-372.81zM761.99 438.42l-140.01-82.62c-19.32-11.4-35.01-36.51-35.01-56.07v-165.39c0-19.56 15.66-26.16 35.01-14.76l140.01 82.62c19.32 11.4 35.01 36.51 35.01 56.07v165.39c0 19.56-15.66 26.16-35.01 14.76z"  horiz-adv-x="1024" />
      
      <glyph glyph-name="bargain" unicode="&#59143;" d="M344.502857 240.64a18.651429 18.651429 0 0 0-13.165714 5.485714l-161.28 161.645715A17.188571 17.188571 0 0 0 164.571429 420.571429V749.714286a18.285714 18.285714 0 0 0 18.285714 18.285714h329.142857a17.188571 17.188571 0 0 0 12.8-5.485714l179.2-178.834286a18.651429 18.651429 0 0 0 5.485714-13.531429 19.382857 19.382857 0 0 0-6.217143-13.165714l-346.697142-311.588571a20.114286 20.114286 0 0 0-12.068572-4.754286zM201.142857 428.251429l143.725714-144.091429 319.634286 287.085714-160.182857 160.182857H201.142857z m201.142857 10.605714a91.428571 91.428571 0 1 0 91.428572 91.428571 91.428571 91.428571 0 0 0-91.428572-91.428571z m0 146.285714a54.857143 54.857143 0 1 1 54.857143-54.857143A54.857143 54.857143 0 0 1 402.285714 585.142857zM603.428571-54.85714299999995a17.188571 17.188571 0 0 0-12.8 5.485714L365.714286 174.44571399999995a17.92 17.92 0 0 0 0 24.868572l311.222857 347.062857a19.017143 19.017143 0 0 0 13.165714 5.851428 20.114286 20.114286 0 0 0 13.531429-5.12l241.371428-241.737142a17.554286 17.554286 0 0 0 0-25.6l-329.142857-329.142858a17.188571 17.188571 0 0 0-12.434286-5.485714z m-198.582857 242.834286l198.582857-198.582857 303.177143 303.177143-214.674285 215.04zM250.88 25.965714000000048a18.285714 18.285714 0 0 0-12.8 5.12l-68.022857 68.388572a17.92 17.92 0 0 0-5.485714 13.165714 16.822857 16.822857 0 0 0 6.217142 13.165714L841.142857 726.6742859999999a18.285714 18.285714 0 0 0 25.234286 0 18.651429 18.651429 0 0 0 0-24.868572L264.777143 31.817142999999987a19.017143 19.017143 0 0 0-13.165714-5.851429z m-41.325714 85.577143l40.594285-40.96 360.594286 402.285714z"  horiz-adv-x="1024" />
      
      <glyph glyph-name="download-folder" unicode="&#59184;" d="M865.16622222 584.97706667H536.02986667L493.06737778 675.27111111a41.50613333 41.50613333 0 0 1-37.86524445 24.02986667H136.26026667a41.50613333 41.50613333 0 0 1-41.50613334-41.50613333v-591.28035556a64.80782222 64.80782222 0 0 1 64.80782222-64.80782222h706.33244445a64.80782222 64.80782222 0 0 1 64.80782222 64.80782222V520.16924445a64.80782222 64.80782222 0 0 1-65.536 64.80782222zM512 165.54666667000004L360.53902222 355.60106667h92.47857778V440.79786667h117.9648v-85.1968h91.7504z"  horiz-adv-x="1024" />
      
      <glyph glyph-name="chart" unicode="&#59157;" d="M304 213.33333300000004H165.333333a37.373333 37.373333 0 0 1-37.333333-37.333333v-224a37.373333 37.373333 0 0 1 37.333333-37.333333h138.666667a37.373333 37.373333 0 0 1 37.333333 37.333333v224a37.373333 37.373333 0 0 1-37.333333 37.333333z m-5.333333-256H170.666667v213.333334h128z m304 384H464a37.373333 37.373333 0 0 1-37.333333-37.333333v-352a37.373333 37.373333 0 0 1 37.333333-37.333333h138.666667a37.373333 37.373333 0 0 1 37.333333 37.333333V304a37.373333 37.373333 0 0 1-37.333333 37.333333z m-5.333334-384H469.333333V298.66666699999996h128z m304 554.666667h-138.666666a37.373333 37.373333 0 0 1-37.333334-37.333333v-522.666667a37.373333 37.373333 0 0 1 37.333334-37.333333h138.666666a37.373333 37.373333 0 0 1 37.333334 37.333333V474.666667a37.373333 37.373333 0 0 1-37.333334 37.333333z m-5.333333-554.666667h-128V469.333333h128z m42.666667 874.666667v-128a21.333333 21.333333 0 0 0-42.666667 0V780.5L633.753333 518.246667a21.333333 21.333333 0 0 0-30.173333 0L490.666667 631.166667 164.42 304.91333299999997a21.333333 21.333333 0 0 0-30.173333 30.173334l341.333333 341.333333a21.333333 21.333333 0 0 0 30.173333 0L618.666667 563.5 865.833333 810.666667H789.333333a21.333333 21.333333 0 0 0 0 42.666666h128a21.213333 21.213333 0 0 0 14.993334-6.16l0.046666-0.046666A21.213333 21.213333 0 0 0 938.666667 832z"  horiz-adv-x="1024" />
      
      <glyph glyph-name="chart-fill" unicode="&#59158;" d="M640 304v-352a37.373333 37.373333 0 0 0-37.333333-37.333333H464a37.373333 37.373333 0 0 0-37.333333 37.333333V304a37.373333 37.373333 0 0 0 37.333333 37.333333h138.666667a37.373333 37.373333 0 0 0 37.333333-37.333333z m261.333333 208h-138.666666a37.373333 37.373333 0 0 1-37.333334-37.333333v-522.666667a37.373333 37.373333 0 0 1 37.333334-37.333333h138.666666a37.373333 37.373333 0 0 1 37.333334 37.333333V474.666667a37.373333 37.373333 0 0 1-37.333334 37.333333z m-597.333333-298.666667H165.333333a37.373333 37.373333 0 0 1-37.333333-37.333333v-224a37.373333 37.373333 0 0 1 37.333333-37.333333h138.666667a37.373333 37.373333 0 0 1 37.333333 37.333333v224a37.373333 37.373333 0 0 1-37.333333 37.333333z m633.04 626.86a21.333333 21.333333 0 0 1-4.533333 6.8l-0.046667 0.046667A21.213333 21.213333 0 0 1 917.333333 853.333333h-128a21.333333 21.333333 0 0 1 0-42.666666h76.5L618.666667 563.5 505.753333 676.42a21.333333 21.333333 0 0 1-30.173333 0l-341.333333-341.333333a21.333333 21.333333 0 0 1 30.173333-30.173334L490.666667 631.166667l112.913333-112.92a21.333333 21.333333 0 0 1 30.173333 0L896 780.5V704a21.333333 21.333333 0 0 1 42.666667 0V832a21.333333 21.333333 0 0 1-1.626667 8.193333z"  horiz-adv-x="1024" />
      
      <glyph glyph-name="download-cloud-fill" unicode="&#59177;" d="M761.98 482.88c0.25 4.4 0.39 8.82 0.39 13.28 0 127.18-102.84 230.28-229.71 230.28s-229.71-103.1-229.71-230.28c0-0.67 0.02-1.33 0.03-2a213.156 213.156 0 0 1-38.91 3.58c-117.2 0-212.21-95.25-212.21-212.74 0-117.49 95.01-212.74 212.21-212.74 2.94 0 5.86 0.08 8.77 0.2 2.54-0.13 5.09-0.2 7.66-0.2h467.35c2.82 0 5.61 0.09 8.39 0.24 108.96 5.16 195.72 95.13 195.72 205.36 0.01 108.3-83.73 197.04-189.98 205.02zM616.33 311.76l-90.86-93.93c-0.78-1.11-1.66-2.17-2.63-3.17-3.95-4.09-8.9-6.62-14.09-7.61-8.34-1.77-17.38 0.51-23.97 6.89a25.975 25.975 0 0 0-3.16 3.68l-93.5 90.45c-10.53 10.19-10.81 26.99-0.62 37.52 10.19 10.53 26.99 10.81 37.52 0.62l45.09-43.62c0 0.06-0.01 0.12-0.01 0.18l-2.43 146.62c-0.3 17.83 13.92 32.52 31.75 32.82 17.83 0.3 32.52-13.92 32.82-31.75l2.43-146.63v-0.17l43.52 44.99c10.19 10.53 26.99 10.81 37.52 0.62 10.53-10.17 10.81-26.97 0.62-37.51z"  horiz-adv-x="1024" />
      
      <glyph glyph-name="function" unicode="&#59187;" d="M512 787.2l349.44-201.6v-403.2L512-19.200000000000045 162.56 182.39999999999998v403.2L512 787.2m0 76.8c-13.44 0-26.88-3.84-38.4-9.6L124.16 652.8c-23.04-13.44-38.4-38.4-38.4-67.2v-403.2c0-26.88 15.36-51.84 38.4-67.2L473.6-86.39999999999998c11.52-7.68 24.96-9.6 38.4-9.6s26.88 3.84 38.4 9.6L899.84 115.20000000000005c23.04 13.44 38.4 38.4 38.4 67.2v403.2c0 26.88-15.36 51.84-38.4 67.2L550.4 854.4c-11.52 5.76-24.96 9.6-38.4 9.6zM686.72 533.76L531.2 441.6c-11.52-7.68-26.88-7.68-40.32 0l-144 90.24c-17.28 11.52-42.24 5.76-53.76-11.52-11.52-17.28-5.76-42.24 11.52-53.76l147.84-92.16c11.52-7.68 17.28-19.2 17.28-32.64V153.60000000000002c0-21.12 17.28-38.4 38.4-38.4s38.4 17.28 38.4 38.4v188.16c0 13.44 7.68 26.88 19.2 32.64l157.44 94.08c19.2 11.52 24.96 34.56 13.44 51.84-7.68 19.2-30.72 24.96-49.92 13.44z"  horiz-adv-x="1024" />
      
      <glyph glyph-name="evaluate-fill" unicode="&#59203;" d="M411.94666667 30.186666670000022l1.06666666 0.74666666c-9.92 12.37333333-20.26666667 24.32-31.68 35.30666667-53.22666667 51.2-121.92 85.86666667-197.44 97.17333333l-0.10666666-0.85333333c-1.38666667 0.10666667-2.77333333 0.64-4.16 0.42666667-18.66666667-1.6-32.53333333-18.13333333-30.93333334-36.90666667 1.38666667-16.10666667 13.97333333-27.94666667 29.33333334-30.08l-0.10666667-0.74666667c59.62666667-9.92 113.92-37.54666667 156.16-78.18666666 8-7.68 15.25333333-15.89333333 22.29333333-24.42666667 6.18666667-11.73333333 18.98666667-19.30666667 33.06666667-18.13333333 18.66666667 1.6 32.53333333 18.13333333 30.93333333 36.90666666-0.53333333 7.36-3.94666667 13.54666667-8.42666666 18.77333334z m430.93333333 132.90666666c-1.49333333 0.10666667-2.77333333-0.42666667-4.16-0.42666666l-0.10666667 0.85333333c-75.52-11.41333333-144.21333333-45.97333333-197.44-97.17333333-11.41333333-10.98666667-21.86666667-22.93333333-31.68-35.30666667l1.06666667-0.74666667c-4.48-5.22666667-7.78666667-11.41333333-8.42666667-18.66666666-1.6-18.66666667 12.16-35.2 30.93333334-36.90666667 14.08-1.28 26.88 6.29333333 33.06666666 18.13333333 7.04 8.53333333 14.4 16.85333333 22.29333334 24.42666667 42.24 40.74666667 96.53333333 68.37333333 156.16 78.18666667l-0.10666667 0.74666666c15.36 2.13333333 27.84 13.97333333 29.33333333 30.08 1.6 18.56-12.16 35.09333333-30.93333333 36.8zM827.73333333 342.50666666999996c85.86666667 148.69333333 33.06666667 329.49333333-6.18666666 352.10666666-21.65333333 12.48-86.82666667 4.37333333-155.30666667-30.08-41.70666667 103.14666667-122.02666667 171.73333333-154.88 171.73333334S398.08 767.6800000000001 356.26666667 664.53333333c-68.48 34.45333333-133.65333333 42.56-155.30666667 30.08-39.25333333-22.72-91.94666667-203.41333333-6.18666667-352.10666666 68.16-118.08 190.82666667-196.90666667 271.14666667-205.76v-162.24c0-25.06666667 20.26666667-45.33333333 45.33333333-45.33333334s45.33333333 20.26666667 45.33333334 45.33333334V136.74666666999997c80.32 8.74666667 202.98666667 87.68 271.14666666 205.76z"  horiz-adv-x="1024" />
      
      <glyph glyph-name="help-lack" unicode="&#59191;" d="M902.48533333 150.10702187000004a34.13333333 34.13333333 0 0 0-58.53866666 35.13457813A384.8419552 384.8419552 0 0 1 898.8444448 384c0 213.65191147-173.19253333 386.8444448-386.8444448 386.8444448S125.1555552 597.65191147 125.1555552 384s173.19253333-386.8444448 386.8444448-386.8444448a384.8419552 384.8419552 0 0 1 198.7356448 54.87502293 34.13333333 34.13333333 0 0 0 35.1232-58.53866666A453.0972448 453.0972448 0 0 0 512-71.11111146999997C260.65351147-71.11111146999997 56.88888853 132.65351147 56.88888853 384S260.65351147 839.11111147 512 839.11111147s455.11111147-203.76462187 455.11111147-455.11111147c0-83.51288853-22.56213333-163.80586667-64.62577814-233.89297813zM659.91111147 463.6444448c0-70.29191147-49.83466667-128.91022187-116.47431147-144.08817813V281.6a34.13333333 34.13333333 0 0 0-68.26666667 0v68.26666667a34.13333333 34.13333333 0 0 0 34.13333334 34.13333333C554.95111147 384 591.6444448 419.84 591.6444448 463.6444448s-36.69333333 79.6444448-82.34097813 79.64444373c-28.55822187 0-54.48817813-14.1312-69.51822187-36.93226666a77.96053333 77.96053333 0 0 1-9.0908448-18.89848854 34.13333333 34.13333333 0 0 0-64.9443552 21.00337814c4.05048853 12.53831147 9.78488853 24.46222187 17.0439104 35.4531552 27.57973333 41.87022187 74.86577813 67.64088853 126.5208896 67.64088853C592.29297813 611.5555552000001 659.91111147 545.51893333 659.91111147 463.6444448zM512 145.06666667000002a34.13333333 34.13333333 0 1 0 0 68.26666666 34.13333333 34.13333333 0 0 0 0-68.26666666z"  horiz-adv-x="1024" />
      
      <glyph glyph-name="help-fill" unicode="&#59190;" d="M512 839.11111147c251.34648853 0 455.11111147-203.76462187 455.11111147-455.11111147S763.34648853-71.11111146999997 512-71.11111146999997 56.88888853 132.65351147 56.88888853 384 260.65351147 839.11111147 512 839.11111147z m0-625.77777814a34.13333333 34.13333333 0 1 1 0-68.26666666 34.13333333 34.13333333 0 0 1 0 68.26666666z m-2.6851552 398.22222187c-51.64373333 0-98.92977813-25.77066667-126.5208896-67.64088853a146.2272 146.2272 0 0 1-17.0439104-35.4531552 34.13333333 34.13333333 0 0 1 64.9671104-21.00337814c2.1504 6.656 5.21102187 13.01617813 9.0908448 18.89848854C454.82666667 529.15768853 480.75662187 543.28888853 509.3148448 543.28888853 554.96248853 543.28888853 591.6444448 507.44888853 591.6444448 463.6444448s-36.69333333-79.6444448-82.34097813-79.6444448a34.13333333 34.13333333 0 0 1-34.13333334-34.13333333v-68.26666667a34.13333333 34.13333333 0 0 1 68.26666667 0v37.95626667C610.0764448 334.72284479999996 659.91111147 393.35253333 659.91111147 463.6444448c0 81.87448853-67.6067552 147.91111147-150.6076448 147.9111104z"  horiz-adv-x="1024" />
      
      <glyph glyph-name="function-fill" unicode="&#59189;" d="M895.17743655 656.1313818799999L555.87004625 852.17565187c-27.41877937 15.76579781-60.32131406 15.76579781-87.7400925 0L128.82256345 656.1313818799999c-27.41877937-15.76579781-43.87004625-44.55551625-43.87004626-76.08711187v-392.08854002c0-31.53159563 16.45126781-60.32131406 43.87004626-76.08711186l339.99285936-196.04427c27.41877937-15.76579781 60.32131406-15.76579781 87.74009344 0l339.99285937 196.04427c27.41877937 15.76579781 43.87004625 44.55551625 43.87004625 76.08711186V580.04427001c-1.37093906 31.53159563-17.82220594 60.32131406-45.2409853 76.08711187z m-127.49732249-171.36736875l-233.05962093-131.61013969v-265.27668656c-0.68546906-13.70938969-3.42734719-23.99143125-15.08032875-26.73330938-5.48375625-3.42734719-10.96751156-4.79828625-17.13673688-4.79828625h-2.74187812a32.90253469 32.90253469 0 0 0-32.90253469 32.90253469V360.69403781000005c0 2.05640812 0 4.11281719 0.68546906 6.16922532L259.06176406 484.76401312c-15.76579781 8.91110343-24.67690125 28.7897175-15.76579875 44.55551532 8.91110343 15.76579781 27.41877937 21.24955406 42.49910813 12.33845062l226.89039562-131.61013875 227.57586656 131.61013875c15.76579781 8.91110343 32.90253469 3.42734719 41.81363719-12.33845062 8.91110343-15.08032875 1.37093906-35.64441281-14.39485875-44.55551531z"  horiz-adv-x="1024" />
      
      <glyph glyph-name="bargain-fill" unicode="&#59144;" d="M849.540741 416.502519L499.863704 42.09777799999995l56.604444-56.623408a75.851852 75.851852 0 0 1 107.273482 0L918.509037 240.26074100000005a75.851852 75.851852 0 0 1 0 107.273481l-68.949333 68.968297zM167.215407 668.6151110000001l-0.246518-4.114963-8.286815-247.201185a75.851852 75.851852 0 0 1 19.285333-53.134222l2.882371-3.034074 146.944-146.944 381.231407 342.85037-166.21037 166.21037a75.851852 75.851852 0 0 1-51.522371 22.186667h-4.456296l-246.404741-7.642074a75.851852 75.851852 0 0 1-73.216-69.176889z m171.38726-103.196444a64 64 0 1 0 90.510222-90.510223 64 64 0 0 0-90.510222 90.510223zM786.944 541.013333L332.496593 132.34251900000004a37.925926 37.925926 0 0 1-1.782519-54.708149l30.928593-31.668148a37.925926 37.925926 0 0 1 54.859852 0.625778l417.640296 447.16563a33.109333 33.109333 0 0 1-0.777482 46.023111 33.754074 33.754074 0 0 1-46.421333 1.232592z"  horiz-adv-x="1024" />
      
      <glyph glyph-name="auth" unicode="&#59168;" d="M962.33244445 435.08622222l-90.112 88.40533333v111.50222223c-0.11377778 39.70844445 11.71911111 111.38844445-27.76177778 111.50222222H622.36444445L566.84088889 830.00888889c-27.98933333 27.98933333-78.27911111 34.92977778-106.26844444 6.94044444l-60.30222223-90.56711111H233.58577778c-39.59466667-0.11377778-85.21955555-31.28888889-85.33333333-70.99733333v-145.97688889l-88.17777778-94.43555555c-27.87555555-28.10311111-27.87555555-73.61422222 0-101.71733334l88.17777778-95.68711111V91.59111111000004c0.11377778-39.70844445 17.97688889-69.74577778 57.57155555-69.85955556h166.57066667l88.064-90.33955555c27.98933333-27.98933333 73.38666667-27.98933333 101.376 0l88.17777778 90.33955555h138.80888888c39.59466667 0.11377778 83.17155555 43.91822222 83.28533334 83.62666667V244.736l90.112 88.51911111c27.98933333 28.21688889 27.98933333 73.61422222 0.11377778 101.83111111zM511.88622222 164.63644445L257.36533333 529.52177778H439.18222222l72.02133333-217.31555556 73.38666667 217.31555556h181.81688889L511.88622222 164.63644445z"  horiz-adv-x="1024" />
      
      <glyph glyph-name="footprint" unicode="&#59169;" d="M742.4 678.4c0 12.8 6.4 25.6 12.8 38.4 12.8 6.4 25.6 12.8 38.4 12.8 12.8 0 25.6-6.4 38.4-12.8 12.8-6.4 12.8-25.6 12.8-38.4 0-12.8-6.4-25.6-12.8-38.4-12.8-6.4-25.6-12.8-38.4-12.8-12.8 0-25.6 6.4-38.4 12.8-6.4 12.8-12.8 25.6-12.8 38.4zM601.6 768c0 12.8 6.4 32 19.2 44.8C633.6 825.6 646.4 832 665.6 832c19.2 0 32-6.4 44.8-19.2 12.8-12.8 19.2-25.6 19.2-44.8 0-19.2-6.4-32-19.2-44.8-12.8-12.8-25.6-19.2-44.8-19.2-19.2 0-32 6.4-44.8 19.2-12.8 12.8-19.2 25.6-19.2 44.8zM416 793.6c0 19.2 6.4 38.4 19.2 51.2C448 857.6 467.2 864 486.4 864c19.2 0 38.4-6.4 51.2-19.2 12.8-12.8 19.2-32 19.2-51.2 0-19.2-6.4-38.4-19.2-51.2-12.8-12.8-32-19.2-51.2-19.2-19.2 0-38.4 6.4-51.2 19.2-12.8 12.8-19.2 32-19.2 51.2z m-236.8-12.8c0 25.6 12.8 44.8 25.6 64 19.2 19.2 44.8 25.6 64 25.6 25.6 0 51.2-12.8 64-25.6 19.2-19.2 25.6-38.4 25.6-64s-12.8-44.8-25.6-64c-19.2-19.2-44.8-25.6-64-25.6-25.6 0-51.2 12.8-64 25.6-19.2 19.2-25.6 38.4-25.6 64z m435.2-115.2H364.8c-83.2-6.4-147.2-70.4-147.2-153.6 0-57.6 32-102.4 76.8-134.4 0 0 89.6-44.8 0-268.8-6.4-19.2-12.8-38.4-12.8-57.6 0-83.2 70.4-153.6 160-153.6 38.4 0 76.8 12.8 102.4 38.4 160 128 262.4 320 262.4 537.6V480c0 96-83.2 185.6-192 185.6z"  horiz-adv-x="1024" />
      
      <glyph glyph-name="date" unicode="&#59171;" d="M445.12997831 77.17355520000001L123.24336071 77.17355520000001 123.24336071 500.98612907l740.07474631 0c13.29652622 0 24.07501369 10.77848747 24.07501369 24.07501368L887.39312071 717.73261369l0 14.09752178c0 13.29652622-10.77848747 24.07501369-24.07501369 24.07501368l-13.51497955 0L681.46590151 755.9051491499999l0 40.92796018c0 13.29652622-10.77848747 24.07501369-24.07501369 24.07501369-13.29798258 0-24.07501369-10.77848747-24.07501369-24.07501369l0-40.92796018L334.78774329 755.9051491499999l0 40.92796018c0 13.29652622-10.77848747 24.07501369-24.07501369 24.07501369s-24.07501369-10.77848747-24.07501369-24.07501369l0-40.92796018L112.68623929 755.9051491499999l-13.51789227 0c-13.29652622 0-24.07501369-10.77848747-24.07501369-24.07501368l0-14.09752178 0-192.67292729 0-457.86362311c0-21.04870685 16.86459733-38.17253547 37.59290596-38.17253547l332.44519538 0c13.29652622 0 24.07501369 10.77703111 24.07501368 24.07501369C469.20644835 66.39506773000005 458.42650453 77.17355520000001 445.12997831 77.17355520000001zM123.24336071 707.75512178l163.3943552 0 0-40.92796018c0-13.29652622 10.77848747-24.07501369 24.07501369-24.07501369s24.07501369 10.77703111 24.07501369 24.07501369l0 40.92796018 298.52667449 0 0-40.92796018c0-13.29652622 10.77703111-24.07501369 24.07501369-24.07501369 13.29652622 0 24.07501369 10.77703111 24.07501368 24.07501369l0 40.92796018L839.24309333 707.75512178l0-158.62042169L123.24336071 549.13470009 123.24336071 707.75512178zM715.09315129 416.88159573c-129.52243769 0-234.8941312-105.37314987-234.8941312-234.89704391 0-129.51952498 105.37169351-234.89121849 234.8941312-234.89121849s234.8941312 105.37314987 234.8941312 234.89121849C949.98728249 311.50844586999995 844.61558898 416.88159573 715.09315129 416.88159573zM715.09315129-4.756639289999953c-102.9701632 0-186.74410382 83.77248427-186.74410382 186.74556018s83.77248427 186.74556018 186.74410382 186.74556018c102.97161955 0 186.74556018-83.77248427 186.74556018-186.74556018S818.06477085-4.756639289999953 715.09315129-4.756639289999953zM373.30834773 237.43674595000005l-163.708928 0c-13.29798258 0-24.07501369-10.77703111-24.07501368-24.07501368 0-13.29506987 10.77703111-24.07355733 24.07501368-24.07355734l163.708928 0c13.29652622 0 24.07501369 10.77848747 24.07501369 24.07355734C397.38190507 226.65971485 386.6034176 237.43674595000005 373.30834773 237.43674595000005zM373.30834773 373.38899342l-163.708928 0c-13.29798258 0-24.07501369-10.77848747-24.07501368-24.07355733 0-13.29798258 10.77703111-24.07501369 24.07501368-24.07501369l163.708928 0c13.29652622 0 24.07501369 10.77703111 24.07501369 24.07501369C397.38190507 362.60904960000005 386.6034176 373.38899342 373.30834773 373.38899342zM843.29176178 206.05956550999997l-104.1235968 0 0 57.77945031c0 13.29798258-10.77703111 24.07501369-24.07355733 24.07501369s-24.07501369-10.77703111-24.0750137-24.07501369l0-81.854464c0-13.29506987 10.77848747-24.07355733 24.0750137-24.07355733l128.19715413 0c13.29652622 0 24.07501369 10.77848747 24.07501369 24.07355733C867.36823182 195.28253440000003 856.588288 206.05956550999997 843.29176178 206.05956550999997z"  horiz-adv-x="1024" />
      
      <glyph glyph-name="dynamic" unicode="&#59142;" d="M990.8 345.20000000000005c-2.3 24.5-24 43.3-66.1 57-2.1 49.5-12.9 97.5-32.1 143-20.8 49.2-50.6 93.4-88.6 131.4s-82.2 67.8-131.4 88.6c-51 21.6-105.1 32.5-160.9 32.5-55.8 0-109.9-10.9-160.9-32.5-49.2-20.8-93.4-50.6-131.4-88.6-38-38-67.8-82.2-88.6-131.4-21.6-51-32.5-105.1-32.5-160.9 0-18.2 1.2-36.3 3.5-54.1-18.5-9.2-33.3-18.6-43.8-28.1-16.1-14.5-23.5-30-22-46.1 3-32.2 39.8-54.8 112.2-68.5 19-35 42.8-67 71.3-95.5 38-38 82.2-67.8 131.4-88.6 51-21.6 105.1-32.5 160.9-32.5 55.8 0 109.9 10.9 160.9 32.5C721.9 24.200000000000045 766.1 54 804 92s67.8 82.2 88.6 131.4c5.5 12.9 10.2 26 14.3 39.3 59.2 25.3 86.7 52.5 83.9 82.5zM511.7 747.6c200.4 0 363.4-163 363.4-363.4 0-33.2-4.5-65.5-12.9-96.1-7.6-2.7-15.9-5.5-24.8-8.3-83.4-26.4-195.8-47.1-316.6-58.4-120.8-11.3-235.2-11.7-322-1.3-4.1 0.5-8.1 1-12 1.5-24.6 48.9-38.4 104.1-38.4 162.5 0 200.5 163 363.5 363.3 363.5z m-436-487.9c-0.3 3.1 5.9 14.1 33.6 29.3 4.5-18.9 10.3-37.4 17.4-55.6-39.8 10.9-50.6 22.6-51 26.3z m436-238.8c-124 0-233.7 62.5-299.3 157.6 38.7-3.9 81.9-5.8 128.2-5.8 57.6 0 119.9 3 183.9 9 121.7 11.4 235.4 32.2 320.9 58.8C789.6 111.39999999999998 661 20.899999999999977 511.7 20.899999999999977zM919 313.1c2.7 15.4 4.5 30.9 5.4 46.6 20.5-8.3 26.4-15.7 26.6-18.3 0.3-3.1-6-13.7-32-28.3zM254.6 425.9c1.6-0.4 3.2-0.6 4.7-0.6 9 0 17.2 6.1 19.4 15.3 3.6 15 8.8 29.6 15.3 43.6 4.7 10 0.3 21.9-9.7 26.6-10 4.7-21.9 0.3-26.6-9.7-7.6-16.3-13.6-33.5-17.9-51-2.5-10.7 4-21.5 14.8-24.2zM304.1 540.7c3.8-3.4 8.6-5.1 13.3-5.1 5.5 0 11 2.2 14.9 6.7 44.9 50.2 109.3 78.9 176.5 78.9 11 0 20 9 20 20s-9 20-20 20c-40.1 0-78.7-8.4-114.9-24.9-34.9-16-65.7-38.6-91.4-67.4-7.3-8.2-6.6-20.8 1.6-28.2z"  horiz-adv-x="1024" />
      
      <glyph glyph-name="eye" unicode="&#59170;" d="M512 252.86530600000003c-72.097959 0-131.134694 58.514286-131.134694 131.134694S439.902041 515.1346940000001 512 515.1346940000001s131.134694-58.514286 131.134694-131.134694-59.036735-131.134694-131.134694-131.134694z m0 220.47347c-49.110204 0-89.338776-40.228571-89.338776-89.338776s40.228571-89.338776 89.338776-89.338776 89.338776 40.228571 89.338776 89.338776-40.228571 89.338776-89.338776 89.338776zM512 97.55863893000003c-185.57387733 0-343.28380907 139.87700693-420.74557867 222.9115648-32.879456 35.66585067-32.879456 90.83646293 0 126.5023136 77.46176853 83.03455787 235.17170027 222.9115648 420.74557867 222.9115648s343.28380907-139.87700693 420.74557867-222.9115648c32.879456-35.66585067 32.879456-90.83646293 0-126.5023136-77.46176853-83.03455787-235.17170027-222.9115648-420.74557867-222.9115648z m0 528.30040854c-168.8555104 0-315.41986347-130.960544-388.4234016-208.97959147-17.27564587-18.39020373-17.27564587-47.3687072 0-65.758912 72.44625813-78.01904747 219.5678912-208.97959147 388.4234016-208.97959147s315.41986347 130.960544 388.4234016 208.97959147c17.27564587 18.39020373 17.27564587 47.3687072 0 65.758912-73.00353707 78.01904747-219.5678912 208.97959147-388.4234016 208.97959147z"  horiz-adv-x="1024" />
      
      <glyph glyph-name="icon-star" unicode="&#59174;" d="M271.52-60c-7.2 0-14.88 0.96-22.08 3.36-19.2 5.76-34.56 18.72-44.16 36-7.68 14.4-10.56 31.68-7.68 48l40.32 229.44L71.36 418.56c-14.4 13.92-22.56 32.16-22.56 52.32-0.48 19.68 7.2 38.88 20.64 52.8 11.52 12 26.88 19.68 43.2 22.08l230.4 32.64L445.28 787.2c8.64 17.76 24 31.2 42.72 37.92 18.72 6.24 38.88 5.28 56.64-3.36 14.88-7.2 26.88-19.2 34.08-34.08l102.24-209.28 230.4-32.64c19.68-2.88 36.96-12.96 48.96-28.8 12-15.84 16.8-35.52 14.4-55.2-2.4-16.32-10.08-31.68-22.08-43.2l-167.52-161.76 40.32-229.44c3.36-19.68-0.96-39.36-12.48-55.68s-28.32-27.36-48-30.72c-16.32-2.88-33.12 0-48 7.68L512 58.08000000000004l-205.44-109.44c-11.04-5.76-23.04-8.64-35.04-8.64zM512 757.44c-0.96 0-1.92-0.48-1.92-1.44l-110.4-226.56c-5.28-10.56-15.36-18.24-27.36-19.68l-249.6-35.04c-0.48 0-0.96-0.48-1.44-0.48 0 0-0.48-0.48-0.48-1.92 0-0.96 0.48-1.44 0.96-1.92l181.44-175.2c8.64-8.16 12.48-20.16 10.56-32.16l-43.68-248.16c0-0.48 0-0.96 0.48-1.44 0 0 0.48-0.96 1.44-0.96 0.96-0.48 1.44 0 1.92 0l222.72 118.08c10.56 5.76 23.04 5.76 33.6 0l222.72-118.08c0.48-0.48 0.96-0.48 1.44-0.48 0.48 0 0.96 0 1.44 0.96 0.48 0.96 0.48 1.44 0.48 1.92l-43.68 248.16c-1.92 12 1.92 24 10.56 32.16L902.72 470.4c0.48 0.48 0.48 0.96 0.48 1.44 0 0.48 0 0.96-0.48 1.92s-1.44 0.96-1.44 0.96l-249.6 35.04c-12 1.44-22.08 9.12-27.36 19.68l-110.4 226.56c0 0.48-0.48 0.96-0.96 0.96s-0.48 0.48-0.96 0.48z"  horiz-adv-x="1024" />
      
      <glyph glyph-name="tips" unicode="&#59139;" d="M541.29260587 164.05721172999995c-10.92266667-11.91563627-24.82424213-20.3558784-31.27854507-17.87345386a12.4121216 12.4121216 0 0 0-7.94375787 14.89454506l87.87781867 288.9541824a58.58521173 58.58521173 0 0 1-54.61333333 73.97624214 226.3970912 226.3970912 0 0 1-148.94545494-105.75127254 286.96824213 286.96824213 0 0 1 0-35.25042453l52.62739414 63.05357547c10.92266667 11.91563627 23.83127253 20.3558784 30.28557546 18.3699392a13.90157547 13.90157547 0 0 0 7.94375787-16.88048427l-87.87781867-287.46472747c-9.92969707-33.26448533 8.93672747-66.5289696 55.60630294-73.97624213 68.01842453 0 108.73018133 45.67660587 148.94545493 104.75830293a283.98933333 283.98933333 0 0 1 0 36.24339414zM578.03248533 681.8909088a60.07466667 60.07466667 0 1 1 60.57115094-59.57818133A58.58521173 58.58521173 0 0 1 578.03248533 681.8909088zM512-87.66060587000004a471.66060587 471.66060587 0 1 0 471.66060587 471.66060587 472.1570912 472.1570912 0 0 0-471.66060587-471.66060587z m0 893.67272747a422.0121216 422.0121216 0 1 1 422.0121216-422.0121216A422.50860587 422.50860587 0 0 1 512 806.0121216z"  horiz-adv-x="1024" />
      
      <glyph glyph-name="folder" unicode="&#59172;" d="M128 704v-640h768V576H485.952l-128 128H128z m-32 64H384l128-128h416c9.344 0 17.024-3.008 23.04-8.96 5.952-6.016 8.96-13.696 8.96-23.04v-576a31.168 31.168 0 0 0-8.96-23.04 31.168 31.168 0 0 0-23.04-8.96h-832a31.168 31.168 0 0 0-23.04 8.96 31.168 31.168 0 0 0-8.96 23.04v704c0 9.344 3.008 17.024 8.96 23.04A31.168 31.168 0 0 0 96 768z"  horiz-adv-x="1024" />
      
      <glyph glyph-name="star-fill" unicode="&#59173;" d="M575.852903 780.573598L661.092435 607.9456379999999c10.130509-20.465674 29.675227-34.689317 52.289797-37.963825l190.433097-27.62866c56.996902-8.288598 79.7138-78.281203 38.475467-118.496253l-137.836314-134.35715c-16.372539-15.963226-23.84251-38.987109-19.954032-61.49935l32.540421-189.716799c9.721195-56.792245-49.833916-100.077146-100.793444-73.267113L545.870691 54.55381199999999a69.491196 69.491196 0 0 1-64.67153 0l-170.376737-89.537324c-50.959528-26.810033-110.51464 16.474868-100.793444 73.267113L242.569401 228.0004c3.888478 22.512241-3.581493 45.536125-19.954032 61.49935L84.779055 423.754572c-41.238333 40.215049-18.521435 110.207655 38.475467 118.496252l190.433097 27.62866c22.61457 3.274508 42.159288 17.498151 52.289797 37.963826L451.319277 780.573598c25.479764 51.675827 99.053862 51.675827 124.533626 0z"  horiz-adv-x="1024" />
      
      <glyph glyph-name="home" unicode="&#59136;" d="M512 883.809524c137.99619 0 262.972952-55.954286 353.426286-146.383238A498.249143 498.249143 0 0 0 1011.809524 384c0-137.99619-55.954286-262.972952-146.383238-353.426286A498.249143 498.249143 0 0 0 512-115.80952400000001a498.249143 498.249143 0 0 0-353.426286 146.383238A498.249143 498.249143 0 0 0 12.190476 384c0 137.99619 55.954286 262.972952 146.383238 353.426286A498.249143 498.249143 0 0 0 512 883.809524z m0-24.380953A473.941333 473.941333 0 0 1 175.811048 720.188952 473.941333 473.941333 0 0 1 36.571429 384c0-131.291429 53.223619-250.148571 139.239619-336.188952A473.941333 473.941333 0 0 1 512-91.42857100000003c131.291429 0 250.148571 53.223619 336.188952 139.239619A473.941333 473.941333 0 0 1 987.428571 384c0 131.291429-53.223619 250.148571-139.239619 336.188952A473.941333 473.941333 0 0 1 512 859.428571z m-0.048762-195.072c6.38781 0.292571 12.848762-1.194667 18.602667-4.412952l3.34019-2.169905 253.805715-243.760762-32.914286-4.217904-2.681905-271.043048a34.767238 34.767238 0 0 0-27.940571-34.133333l-3.754667-0.536381-131.047619-0.121905V233.32571399999995a45.226667 45.226667 0 0 1-37.205333 44.544l-4.388572 0.585143-68.169143 0.146286a45.226667 45.226667 0 0 1-44.519619-37.254095l-0.560762-4.33981-0.146285-133.095619h-124.684191a34.767238 34.767238 0 0 0-34.133333 27.989333l-0.512 3.730286-0.170667 292.937143 215.332572 226.791619c5.315048 4.827429 11.751619 7.704381 18.407619 8.655238l3.34019 0.316952z m-240.688762-239.542857l-0.097524-0.292571c-7.801905-16.188952-17.505524-27.721143-26.526476-29.842286l-2.243047-0.341333 28.867047 30.47619z"  horiz-adv-x="1024" />
      
      <glyph glyph-name="case" unicode="&#59138;" d="M511.98952107 893.20560526c-281.22499072 0-509.20444131-227.97944946-509.20444132-509.19978439 0-281.23663474 227.97944946-509.21026219 509.20444132-509.21026218 281.24594859 0 509.2242341 227.97479253 509.2242341 509.21026218C1021.21375517 665.22731975 793.24129166 893.20560526 511.98952107 893.20560526L511.98952107 893.20560526zM511.98952107-86.03639124999995c-259.5970469 0-470.0375552 210.42653753-470.0375552 470.0433772 0 259.59238883 210.43934549 470.03289827 470.0375552 470.03289828 259.59355392 0 470.05269106-210.43934549 470.05269106-470.03289828C982.04687019 124.38898232999998 771.58889586-86.03639124999995 511.98952107-86.03639124999995L511.98952107-86.03639124999995zM711.68940829 423.86895531c-6.51190272 7.28848725-11.61850083 18.87438734-11.61850084 32.0192785 0 27.63105053 23.24165746 51.70517902 51.48629106 51.70517902 28.32147683 0 52.23609799-24.07878542 52.23609799-51.70517902 0-26.94528-20.27619783-48.77697707-46.41229369-52.4165632l-78.36637184-213.27207538c-61.67387363 7.97309269-123.28836779 12.32406301-167.57815068 12.32406301-70.33389966 0-121.82019186-8.71358464-166.76314454-12.32406301l-76.93661753 213.98462351c-25.35718229 0-47.90608441 24.04618581-47.90608441 51.70517902 0 28.37619939 23.97982037 52.42704213 52.26404068 52.42704213s51.49094912-24.05666475 51.49094912-52.42704213c0-8.0289792-2.15278137-15.26274389-12.33570588-31.29625145l74.75589233-85.16701866 31.21009323 151.4154075c-20.34372722 0.71720619-40.68512654 23.23583659-40.68512654 50.95770112 0 30.55226653 24.70401251 55.32147939 55.16895687 55.32147939 29.74541027 0 55.10375651-24.77037682 55.10375651-55.32147939 0-16.75187769-8.72406243-36.41449245-25.35718229-44.41436388l51.45951232-149.94955946 1.4972837 0 49.31138787 149.95188849c-13.79922489 10.93156637-21.74670279 26.90685838-21.74670279 44.40970581 0 30.55808739 24.63997611 55.32846535 55.10492047 55.32846536 29.74541027 0 55.16313486-24.77037682 55.16313486-55.32846536 0-26.22108899-15.29534464-43.73092238-37.71966692-50.95188024l25.38396103-151.4154075 71.79625472 84.44282766-0.0081499 0L711.68824434 423.86895531z"  horiz-adv-x="1024" />
      
      <glyph glyph-name="down" unicode="&#59140;" d="M497.57165547 208.39410667000004c-19.72606933 0.02837973-38.90091733 10.1151776-52.61049067 27.64836906L333.83065707 383.92577600000004c-14.3186464 18.308176-17.88575467 42.0597952-9.13935254 59.9520992 7.99324907 16.35980053 24.4250912 26.84609707 45.11061227 26.80352747l43.59338987-0.07094934 0.05675946 29.39590294c0.0862304 48.62096107 36.58033173 89.649264 81.37658347 89.5641248 37.0453216-0.05785067 64.3356704-17.49171413 76.1121504-47.8044992 2.93511467-7.56427947-1.16138453-16.05853973-8.725664-18.99583787-7.56318827-2.96567787-16.22990933 0.81646187-19.16720747 8.3512704-9.3260032 24.0092192-30.72756587 29.08045227-48.19090026 29.108832-28.3927904 0.05785067-52.00906027-28.12100053-52.06581974-60.28173973l-0.0862304-46.30037547c-0.01418987-8.1078592-9.4766336-12.42048107-17.58449386-12.4062912l-55.36877867 0.10042027c-9.1535424 0.01418987-15.79329813-4.3835712-18.7164064-10.35749654-3.7100992-7.5926592-1.3251136-19.16720747 6.08089493-28.6514816l111.13050774-148.15509013c15.06306773-19.29709867 39.87565013-21.54564373 54.5304864-2.89363733l111.22328746 151.120768c7.69307947 9.7844448 10.127184 21.18762347 6.63320747 28.3938816-2.80740693 5.7872736-9.4973728 10.07151573-18.83865813 10.0846144l-64.65112107 0.11461013c-8.09366933 0.01418987-14.65483627 6.59063787-14.6406464 14.69849707 0.01528107 8.1078592 6.58954667 14.65483627 14.69849707 14.6406464l64.6369312-0.11461014c20.8874528-0.0436608 37.36186453-10.47210667 45.1826528-26.6594464 8.4375008-17.40548373 4.7284928-40.13979947-9.6687424-58.4337856l-111.23747734-151.47878826C533.30605333 217.3620896 516.17345173 208.365728 497.57165547 208.39410667000004zM558.94928853 466.34040107c-3.9676992 0.01418987-7.7640288 1.63292373-10.39897386 4.26896106-2.79430827 2.80740693-4.24058133 6.61792533-4.24058134 10.4284448 0 3.9687904 1.63292373 7.77821867 4.2678688 10.40006507 5.4445344 5.42925333 15.41453867 5.41506347 20.83069334-0.02837973 2.63494507-2.7790272 4.24058133-6.4607456 4.24058133-10.4284448 0-3.81051947-1.63401493-7.62103893-4.41304213-10.40006507C566.57032747 467.94494507 562.7608992 466.34040107 558.94928853 466.34040107zM517.64096355-98.05261984000003c-262.73045548 0.47263147-476.1097184 214.61050453-475.63708693 477.34096C42.48414862 642.04717535 256.63730382 855.39805855 519.36775929 854.92542708 782.09166542 854.45170549 995.45455502 640.31383136 994.98301582 377.56918601999996 994.51038435 114.83873056000004 780.37141902-98.52634250999995 517.64096355-98.05261984000003zM519.25969849 796.24714016C288.87663395 796.66301216 101.10458489 609.57098443 100.68216462 379.18791989c-0.415872-230.38306453 186.68379627-418.14856321 417.0668608-418.5644352 230.38961387-0.41477973 418.14092267 186.66305707 418.55679467 417.04612159S749.64385422 795.83126816 519.25969849 796.24714016zM849.9579232 411.65928427c-8.07838827 0.01418987-14.65483627 6.58954667-14.6395552 14.69740586 0.28597973 152.66746133-102.19854507 287.55722773-249.20753173 328.04085867-7.8076896 2.149216-12.4062912 10.2134144-10.2570752 18.03529387s10.20031573 12.37682027 18.03529386 10.2570752c159.71544853-43.99397973 271.0686272-190.5292448 270.76736534-356.39107947C864.64223147 418.19207147 858.06796693 411.6450944 849.9579232 411.65928427zM516.145072 765.98737813c-0.27288213 0-0.544672 0-0.81646187 0.02837974-6.289376 0.35802027-12.60604053 0.53048213-18.96745813 0.544672-8.09366933 0.01418987-14.65483627 6.58954667-14.6406464 14.69740586 0.01418987 8.10895147 6.60373653 14.65483627 14.69740587 14.6406464 6.88971627-0.01418987 13.7532352-0.22922027 20.57200213-0.61562133 8.09366933-0.43006187 14.28262613-7.36343893 13.82418453-15.45710827C530.36984747 772.0191541300001 523.88072107 765.97318827 516.145072 765.98737813z"  horiz-adv-x="1024" />
      
      <glyph glyph-name="vip1" unicode="&#59153;" d="M140.73206858 735.96230046L47.97421882 735.96230046 47.97421882 832.79793951 326.38968783 832.79793951 326.38968783 445.36077554 697.53462334 832.79793951 976.02578118 832.79793951 140.73206858-38.84579972999995ZM732.91960476-64.79793950999999L732.91960476 297.61428546l-70.95918806 0 0 54.03305623 179.5645897 0 0-416.44527962L732.91960476-64.79793950999999 732.91960476-64.79793950999999z"  horiz-adv-x="1024" />
      
      <glyph glyph-name="vip2" unicode="&#59154;" d="M140.73206858 735.13917499L47.96475771 735.13917499 47.96475771 831.97481246 326.38968783 831.97481246 326.38968783 444.53764848 697.53462334 831.97481246 976.03524229 831.97481246 140.73206858-39.67838630000006ZM929.39140257-65.62106654000002l-301.81307773 0 0 65.49059928 196.49072158 188.29730025L824.06904642 296.7627751l-193.21713717 0 0 54.03305623 298.5678782 0 0-201.38217521-165.92150336-161.03004974 189.92463057 0L929.39140257-65.62106654000002z"  horiz-adv-x="1024" />
      
      <glyph glyph-name="vip3" unicode="&#59155;" d="M140.73206858 735.13917499L47.96475771 735.13917499 47.96475771 831.97481246 326.38968783 831.97481246 326.38968783 444.53764848 697.53462334 831.97481246 976.0163201 831.97481246 140.73206858-39.67838630000006ZM627.57832484-65.62106654000002l0 52.94501512 207.94826465 0 0 129.89315901-151.72966512 0 0 53.47484323 151.72966512 0 0 127.16832491-203.58663913 0 0 52.94501513 308.36970762 0 0-174.6447528-51.29876259-27.82546351 57.31610173-42.01730017 0-171.9293814L627.57832484-65.61160543000005 627.57832484-65.62106654000002z"  horiz-adv-x="1024" />
      
      <glyph glyph-name="vip" unicode="&#59152;" d="M140.73206858 735.13917499L47.9836799 735.13917499 47.9836799 831.97481246 326.38968783 831.97481246 326.38968783 444.53764848 697.53462334 831.97481246 976.03524229 831.97481246 140.73206858-39.67838630000006Z"  horiz-adv-x="1024" />
      
      <glyph glyph-name="vip4" unicode="&#59156;" d="M140.73206858 735.13917499L47.97421882 735.13917499 47.97421882 831.97481246 326.38968783 831.97481246 326.38968783 444.53764848 697.53462334 831.97481246 976.0163201 831.97481246 140.73206858-39.67838630000006ZM908.10364678 8.053492939999956l0-73.67455948-100.97019332 0 0 73.67455948-185.03317695 0 0 52.4057259 195.94196969 289.80678281 90.06140058 0 0-289.26749359 44.22176567 0 0-52.94501512L908.10364678 8.053492939999956zM807.13345346 242.19989078000003l-122.79723988-181.20138115 122.79723988 0L807.13345346 242.19989078000003z"  horiz-adv-x="1024" />
      
      <glyph glyph-name="discuss" unicode="&#59137;" d="M790.03151467 282.22060586c22.34181867 0 42.20121173 14.89454507 47.1660608 37.23636374l29.7890912 111.70909119c7.44727252 27.30666667-9.92969707 54.61333333-34.75393919 59.57818134-27.30666667 7.44727252-54.61333333-9.92969707-59.57818241-34.7539392l-29.78909014-111.7090912c-7.44727252-27.30666667 9.92969707-54.61333333 34.75393921-59.57818133 4.964848-2.48242453 7.44727252-2.48242453 12.41212053-2.48242454z m-208.52363627-2.48242453c22.34181867 0 42.20121173 14.89454507 47.16606081 37.23636374l29.78909119 111.7090912c7.44727252 27.30666667-9.92969707 54.61333333-34.7539392 59.5781824-27.30666667 7.44727252-54.61333333-9.92969707-59.5781824-34.75394027l-29.78909013-111.70909013c-7.44727252-27.30666667 9.92969707-54.61333333 34.7539392-59.57818241 4.964848-2.48242453 7.44727252-2.48242453 12.41212053-2.48242453zM92.47030293-23.11757547000002c-9.92969707 7.44727252-14.89454507 19.85939414-12.4121216 29.78909014 2.48242453 12.4121216 12.4121216 22.34181867 22.34181867 24.8242432 52.1309088 12.4121216 69.5078784 17.3769696 86.884848 32.27151467-79.43757547 57.09575787-173.76969707 176.2521216-173.769696 320.23272746C15.515152 652.1018186700001 243.89818133 880.484848 516.964848 880.484848 787.5490912 880.484848 1008.484848 659.5490912 1008.484848 386.48242453c0-270.58424213-181.2169696-464.21333333-459.24848427-494.00242453-27.30666667-2.48242453-52.1309088-4.964848-79.43757546-4.964848-151.4278784 0-305.33818133 42.20121173-377.32848534 89.36727253z m94.3321216 9.92969707c89.36727254-32.27151467 228.3830304-59.57818133 357.46909014-44.68363627 255.68969707 29.7890912 414.564848 198.59393919 414.56484906 446.83636267C958.83636373 632.24242453 760.24242453 830.83636373 516.964848 830.83636373 271.204848 830.83636373 65.16363627 627.27757547 65.16363627 384c0-136.53333333 106.74424213-260.65454507 183.69939413-295.40848533 9.92969707-4.964848 17.3769696-12.4121216 17.3769696-24.82424213 2.48242453-9.92969707-2.48242453-19.85939414-9.92969707-27.30666666l-7.44727253-7.44727255c-22.34181867-19.85939414-37.23636373-32.27151467-62.06060587-42.20121173"  horiz-adv-x="1024" />
      
      <glyph glyph-name="avatar" unicode="&#59141;" d="M512 873.216C241.75520001 873.216 22.784 654.24479999 22.784 384s218.97120001-489.216 489.216-489.216 489.216 218.97120001 489.216 489.216S782.24479999 873.216 512 873.216z m0-40.68959999c247.1952 0 448.52640001-201.096 448.52640001-448.52640001 0-109.36799999-39.2784-209.5632-104.42880001-287.41440001-47.03999999 19.2864-154.9968 56.6832-218.5008 75.49920001-5.64479999 1.6464-6.3504 2.1168-6.35039999 25.1664 0 19.0512 7.76159999 38.33760001 15.52319998 54.80160001 8.4672 17.64000001 18.11039999 47.51040001 21.63840001 74.32319999 9.8784 11.52479999 23.52000001 34.104 31.98719999 77.3808 7.5264 38.10240001 3.99839999 51.97919999-0.94079999 64.91519999-0.4704 1.4112-1.17599999 2.8224-1.4112 3.99840001-1.88159999 8.93760001 0.70560001 55.272 7.29120001 91.25759999 4.46880001 24.696-1.17599999 77.14560001-35.04480001 120.65760002-21.40320001 27.5184-62.56320001 61.15200001-137.59200001 65.856h-41.15999999c-73.8528-4.70400001-114.77760001-38.33760001-136.416-65.856-34.104-43.512-39.7488-95.96160001-35.27999999-120.65760002 6.5856-35.9856 9.1728-82.32000001 7.2912-91.25759999-0.4704-1.6464-0.94080001-2.8224-1.4112-4.2336-4.9392-12.936-8.7024-26.8128-0.94080001-64.91519999 8.7024-43.27679999 22.10880001-65.85599999 31.9872-77.3808 3.528-26.8128 13.40640001-56.448 21.63839999-74.3232 6.11520001-12.936 8.93760001-30.576 8.93760002-55.50720001 0-23.28480001-0.94080001-23.52000001-6.11520001-25.1664-66.0912-19.52160001-170.75520001-57.1536-212.62080001-75.264-65.6208 78.08639999-105.1344 178.5168-105.1344 288.12 0 247.1952 201.33119999 448.52640001 448.52640001 448.52640001z"  horiz-adv-x="1024" />
      
    </font>
</defs>
</svg>
